# xmcd CD database file
#
# Track frame offsets:
#	182
#	9332
#	12870
#	27282
#	35482
#	46220
#	55420
#	68545
#	89507
#	104545
#	127020
#	143195
#	150082
#	162482
#	177107
#	198495
#	211570
#	220907
#	235007
#	246195
#	260832
#	272845
#
# Disc length: 3756 seconds
#
# Revision: 0
# Processed by: cddbd v1.5.2PL0 Copyright (c) Steve Scherf et al.
# Submitted via: CDex 1.51
#
DISCID=2e0eaa16
DTITLE=Christian Garros Big Band - Jazz De J À Z...
DYEAR=1995
DGENRE=Jazz
TTITLE0=Jazz Swing - Jazz Dance
TTITLE1=Nobody Knows
TTITLE2=Maple Leaf Rag
TTITLE3=Bahut Blues
TTITLE4=Disquaire 1ère Partie
TTITLE5=Muskrat Ramble
TTITLE6=Sur Les Rails
TTITLE7=Quartet
TTITLE8=Cute
TTITLE9=Stormy Weather
TTITLE10=AABA
TTITLE11=Disquaire 2ème Partie
TTITLE12=Be-Bop
TTITLE13=Whisper Not
TTITLE14=Avec Fougue
TTITLE15=Goodbye Pork Pie Hat - Boogie Stop Shuffle
TTITLE16=Giants Steps
TTITLE17=Blue Rondo A La Turk
TTITLE18=Children Song N° 6
TTITLE19=Lookin'up
TTITLE20=L'effet Joule
TTITLE21=Solfège Blues
EXTD=YEAR: 1995
EXTT0=
EXTT1=
EXTT2=
EXTT3=
EXTT4=
EXTT5=
EXTT6=
EXTT7=
EXTT8=
EXTT9=
EXTT10=
EXTT11=
EXTT12=
EXTT13=
EXTT14=
EXTT15=
EXTT16=
EXTT17=
EXTT18=
EXTT19=
EXTT20=
EXTT21=
PLAYORDER=
